<?xml version="1.0" standalone="no"?>
<svg viewBox="0 0 200 200" xmlns="http://www.w3.org/2000/svg">
  <path fill="#7D7D7D" d="M18.9,-34.9C28,-23.6,41.3,-24.3,41.7,-20C42.1,-15.8,29.5,-6.7,29.1,5.1C28.8,16.8,40.7,31.2,41.3,42.3C41.9,53.4,31.1,61.3,18.6,66.4C6.1,71.4,-8.1,73.7,-11.5,62.2C-14.9,50.6,-7.4,25.3,-16.9,14.6C-26.4,3.8,-52.8,7.6,-60.6,4C-68.3,0.5,-57.6,-10.5,-45.2,-13.7C-32.9,-16.9,-19.1,-12.5,-11.3,-24.5C-3.5,-36.5,-1.7,-64.9,1.6,-67.4C4.9,-69.8,9.8,-46.3,18.9,-34.9Z" transform="translate(100 100)" />
</svg>
